<?xml version="1.0" encoding="UTF-8" standalone="no"?>
<svg
   viewBox="0 0 24 24"
   version="1.1"
   id="svg1"
   xmlns="http://www.w3.org/2000/svg"
   xmlns:svg="http://www.w3.org/2000/svg">
  <defs
     id="defs1" />
  <rect
     style="fill:#121212;stroke-width:0.377953;stroke-linecap:square;fill-opacity:1"
     id="rect1"
     width="24"
     height="24"
     x="0"
     y="0" />
  <path
     d="M11,0V4H13V0H11M18.3,2.29L15.24,5.29L16.64,6.71L19.7,3.71L18.3,2.29M5.71,2.29L4.29,3.71L7.29,6.71L8.71,5.29L5.71,2.29M12,6A4,4 0 0,0 8,10V16H6V18H9V23H11V18H13V23H15V18H18V16H16V10A4,4 0 0,0 12,6M2,9V11H6V9H2M18,9V11H22V9H18Z"
     id="path1"
     style="fill:#ffffff;fill-opacity:1" />
</svg>
